#N canvas 264 220 657 519 10;
#X obj 31 44 inlet trig;
#X obj 217 48 inlet;
#X obj 339 47 inlet;
#X obj 427 47 inlet;
#X obj 31 92 sel 0;
#X msg 31 126 stop;
#X obj 494 134 inlet;
#X text 439 25 decay speed;
#X text 214 26 attack level;
#X text 338 26 attack speed;
#X text 492 112 sustain %;
#X obj 377 149 del \$2;
#X obj 196 240 f \$1;
#X obj 377 180 f \$4;
#X obj 377 221 * 0.01;
#X obj 377 290 * \$1;
#X obj 377 312 pack 0 \$3;
#X obj 475 320 pack 0 \$5;
#X obj 559 267 inlet;
#X obj 377 365 line~;
#X obj 377 418 outlet~;
#X text 554 246 release speed;
#X text 29 4 send 1 to start attack \, 0 to release;
#X text 46 239 store attack level;
#X text 447 198 derive sustain level as % of attack;
#X obj 291 321 pack 0 \$2;
#X obj 194 111 t b;
#X text 27 151 if 0 \, stop attack and trigger release;
#X connect 0 0 4 0;
#X connect 1 0 12 1;
#X connect 1 0 15 1;
#X connect 2 0 11 1;
#X connect 2 0 25 1;
#X connect 3 0 16 1;
#X connect 4 0 5 0;
#X connect 4 0 17 0;
#X connect 4 1 26 0;
#X connect 5 0 11 0;
#X connect 6 0 13 0;
#X connect 11 0 13 0;
#X connect 12 0 25 0;
#X connect 13 0 14 0;
#X connect 14 0 15 0;
#X connect 15 0 16 0;
#X connect 16 0 19 0;
#X connect 17 0 19 0;
#X connect 18 0 17 1;
#X connect 19 0 20 0;
#X connect 25 0 19 0;
#X connect 26 0 11 0;
#X connect 26 0 12 0;
