#N canvas 559 42 630 634 10;
#X obj 6 29 hsl 60 15 0.05 4000 1 0 empty empty rate 5 -8 0 10 -4034
-1 -1 4800 0;
#X obj 85 29 hsl 60 15 0 1 0 0 empty empty depth 5 -8 0 10 -159808
-1 -1 5900 0;
#X obj 4 237 osc~;
#X obj 211 346 swap 1;
#X obj 105 494 outlet~ signal;
#X floatatom 286 389 5 0 0 0 - - -, f 5;
#X floatatom 286 404 5 0 0 0 - - -, f 5;
#X floatatom 286 375 5 0 0 0 - - -, f 5;
#X obj 3 -23 inlet rate;
#X obj 82 -22 inlet depth;
#X floatatom 17 61 5 0 0 1 Hz - -, f 5;
#X floatatom 17 91 5 0 0 1 sec - -, f 5;
#X floatatom 105 61 5 0 0 1 % - -, f 5;
#X obj 240 44 * 100;
#X obj 239 76 pow -1;
#X obj 203 469 grapher~;
#X obj 4 307 *~ 0.5;
#X obj 4 275 +~ 1;
#X floatatom 151 355 5 0 0 0 - - -, f 5;
#X obj 219 386 -;
#X obj 105 352 *~;
#X obj 108 406 +~;
#X connect 0 0 2 0;
#X connect 0 0 10 0;
#X connect 1 0 3 0;
#X connect 1 0 13 0;
#X connect 1 0 18 0;
#X connect 1 0 20 1;
#X connect 2 0 17 0;
#X connect 3 0 7 0;
#X connect 3 0 19 0;
#X connect 3 1 5 0;
#X connect 3 1 19 1;
#X connect 6 0 21 1;
#X connect 8 0 0 0;
#X connect 9 0 1 0;
#X connect 10 0 14 0;
#X connect 13 0 12 0;
#X connect 14 0 11 0;
#X connect 16 0 20 0;
#X connect 17 0 16 0;
#X connect 19 0 6 0;
#X connect 20 0 15 0;
#X connect 20 0 21 0;
#X connect 21 0 4 0;
#X coords 0 -1 1 1 150 110 1 0 0;
