#N canvas 0 22 450 300 10;
#X obj 59 24 inlet~ signal;
#X obj 245 14 r envelope;
#X obj 245 49 t b;
#X obj 245 71 random 100;
#X obj 245 93 / 100;
#X obj 245 115 swap 1;
#X obj 245 137 -;
#X obj 245 159 sqrt;
#X obj 230 186 *~;
#X obj 75 152 sqrt;
#X obj 60 184 *~;
#X obj 60 206 outlet~ left;
#X obj 229 207 outlet~ right;
#X obj 94 183 print L;
#X obj 264 187 print R;
#X connect 0 0 8 0;
#X connect 0 0 10 0;
#X connect 1 0 2 0;
#X connect 2 0 3 0;
#X connect 3 0 4 0;
#X connect 4 0 5 0;
#X connect 4 0 9 0;
#X connect 5 0 6 0;
#X connect 5 1 6 1;
#X connect 6 0 7 0;
#X connect 7 0 8 1;
#X connect 7 0 14 0;
#X connect 8 0 12 0;
#X connect 9 0 10 1;
#X connect 9 0 13 0;
#X connect 10 0 11 0;
